<svg width="269" height="69" viewBox="0 0 269 69" fill="none" xmlns="http://www.w3.org/2000/svg">
<g filter="url(#filter0_i)">
<path d="M13.525 50.025C14.875 50.175 16.15 50.425 17.35 50.775C18.55 51.075 19.675 51.425 20.725 51.825V54H0.175V51.825C1.175 51.325 2.2 50.95 3.25 50.7C4.3 50.45 5.325 50.225 6.325 50.025V5.55C5.175 5.35 4.1 5.1 3.1 4.8C2.1 4.45 1.125 4.075 0.175 3.675V1.5H6.925C8.925 1.5 11.1 1.4 13.45 1.2C15.8 0.999998 18.05 0.9 20.2 0.9C22.65 0.9 25.05 1.175 27.4 1.725C29.75 2.225 31.825 3.1 33.625 4.35C35.475 5.6 36.95 7.275 38.05 9.375C39.2 11.425 39.775 14 39.775 17.1C39.775 20.05 39.2 22.575 38.05 24.675C36.9 26.775 35.35 28.5 33.4 29.85C31.5 31.2 29.325 32.2 26.875 32.85C24.425 33.45 21.9 33.75 19.3 33.75C19.05 33.75 18.65 33.75 18.1 33.75C17.6 33.75 17.05 33.75 16.45 33.75C15.85 33.7 15.275 33.65 14.725 33.6C14.175 33.55 13.775 33.5 13.525 33.45V50.025ZM18.625 4.8C17.425 4.8 16.45 4.825 15.7 4.875C14.95 4.925 14.225 5.025 13.525 5.175V29.475C13.775 29.575 14.125 29.65 14.575 29.7C15.075 29.7 15.575 29.725 16.075 29.775C16.625 29.825 17.15 29.85 17.65 29.85C18.15 29.85 18.55 29.85 18.85 29.85C20.6 29.85 22.25 29.625 23.8 29.175C25.35 28.675 26.7 27.9 27.85 26.85C29.05 25.8 30 24.475 30.7 22.875C31.4 21.275 31.75 19.35 31.75 17.1C31.75 13 30.575 9.925 28.225 7.875C25.925 5.825 22.725 4.8 18.625 4.8ZM60.9045 22.125C60.3545 22.425 59.6545 23.05 58.8045 24C58.0045 24.9 57.2795 26.25 56.6295 28.05V50.325C57.6295 50.425 58.6295 50.625 59.6295 50.925C60.6295 51.175 61.6295 51.575 62.6295 52.125V54H44.9295V52.125C45.8295 51.625 46.6795 51.25 47.4795 51C48.2795 50.75 49.0795 50.525 49.8795 50.325V20.85L44.9295 20.25V18.3C46.5295 17.6 48.1795 17.05 49.8795 16.65C51.5795 16.2 53.2045 15.85 54.7545 15.6H56.6295V23.55H56.9295C57.3795 22.55 58.0045 21.55 58.8045 20.55C59.6545 19.55 60.6045 18.65 61.6545 17.85C62.7545 17.05 63.9295 16.45 65.1795 16.05C66.4795 15.6 67.8045 15.45 69.1545 15.6C69.5045 16.25 69.8045 16.975 70.0545 17.775C70.3545 18.525 70.6295 19.325 70.8795 20.175V22.125H60.9045ZM90.3637 69H73.7137V67.125C75.4137 66.325 77.0637 65.725 78.6637 65.325V20.85L73.7137 20.25V18.3C75.3137 17.6 76.9387 17.05 78.5887 16.65C80.2887 16.2 81.9387 15.85 83.5387 15.6H85.4137V24H85.4887C86.4887 21.45 87.8887 19.425 89.6887 17.925C91.4887 16.375 93.8387 15.6 96.7387 15.6C101.189 15.6 104.639 17.075 107.089 20.025C109.539 22.975 110.764 27.775 110.764 34.425C110.764 37.575 110.339 40.425 109.489 42.975C108.689 45.525 107.514 47.675 105.964 49.425C104.464 51.175 102.614 52.525 100.414 53.475C98.2637 54.425 95.8637 54.9 93.2137 54.9C91.3637 54.9 89.9137 54.775 88.8637 54.525C87.8137 54.325 86.6637 53.95 85.4137 53.4V65.325C86.2137 65.425 87.0137 65.6 87.8137 65.85C88.6137 66.15 89.4637 66.575 90.3637 67.125V69ZM94.3387 20.25C91.8887 20.25 89.9387 21.025 88.4887 22.575C87.0387 24.125 86.0137 26.25 85.4137 28.95V49.95C86.3137 50.5 87.3137 50.925 88.4137 51.225C89.5637 51.475 91.0387 51.6 92.8387 51.6C94.4887 51.6 95.9637 51.175 97.2637 50.325C98.6137 49.475 99.7387 48.275 100.639 46.725C101.589 45.175 102.314 43.375 102.814 41.325C103.314 39.225 103.564 36.925 103.564 34.425C103.564 32.375 103.389 30.5 103.039 28.8C102.739 27.05 102.214 25.55 101.464 24.3C100.764 23 99.8137 22 98.6137 21.3C97.4637 20.6 96.0387 20.25 94.3387 20.25ZM125.119 48.825C125.719 49.425 126.494 49.95 127.444 50.4C128.394 50.8 129.819 51 131.719 51C133.319 51 134.819 50.8 136.219 50.4C137.619 49.95 138.819 49.325 139.819 48.525C140.869 47.675 141.694 46.675 142.294 45.525C142.894 44.325 143.194 42.975 143.194 41.475C143.194 39.475 142.569 37.8 141.319 36.45C140.119 35.1 138.594 33.9 136.744 32.85C134.944 31.8 132.969 30.775 130.819 29.775C128.669 28.775 126.669 27.6 124.819 26.25C123.019 24.85 121.494 23.2 120.244 21.3C119.044 19.35 118.444 16.925 118.444 14.025C118.444 11.925 118.819 10.05 119.569 8.4C120.319 6.75 121.369 5.35 122.719 4.2C124.119 3.05 125.769 2.175 127.669 1.575C129.569 0.924998 131.694 0.599999 134.044 0.599999C137.094 0.599999 139.869 0.849999 142.369 1.35C144.919 1.8 146.919 2.375 148.369 3.075C148.369 3.925 148.294 4.925 148.144 6.075C148.044 7.175 147.894 8.325 147.694 9.525C147.544 10.725 147.369 11.9 147.169 13.05C146.969 14.15 146.769 15.125 146.569 15.975H144.619L141.619 5.7C140.719 5.3 139.569 5 138.169 4.8C136.819 4.6 135.369 4.5 133.819 4.5C131.269 4.5 129.219 5.225 127.669 6.675C126.119 8.075 125.344 10.05 125.344 12.6C125.344 14.65 125.944 16.375 127.144 17.775C128.394 19.175 129.944 20.425 131.794 21.525C133.644 22.625 135.619 23.7 137.719 24.75C139.869 25.75 141.869 26.925 143.719 28.275C145.569 29.625 147.094 31.225 148.294 33.075C149.544 34.925 150.169 37.225 150.169 39.975C150.169 42.225 149.744 44.275 148.894 46.125C148.094 47.975 146.919 49.55 145.369 50.85C143.819 52.15 141.919 53.15 139.669 53.85C137.419 54.55 134.869 54.9 132.019 54.9C128.869 54.9 126.044 54.525 123.544 53.775C121.044 53.025 119.269 52.225 118.219 51.375C118.269 50.525 118.344 49.5 118.444 48.3C118.594 47.1 118.744 45.875 118.894 44.625C119.094 43.325 119.294 42.075 119.494 40.875C119.694 39.675 119.894 38.65 120.094 37.8H122.044L125.119 48.825ZM157.154 35.25C157.154 32.1 157.554 29.325 158.354 26.925C159.204 24.475 160.404 22.425 161.954 20.775C163.504 19.075 165.354 17.8 167.504 16.95C169.704 16.05 172.129 15.6 174.779 15.6C177.879 15.6 180.554 16.075 182.804 17.025C185.054 17.975 186.879 19.325 188.279 21.075C189.729 22.775 190.779 24.825 191.429 27.225C192.129 29.625 192.479 32.3 192.479 35.25C192.479 41.55 190.879 46.4 187.679 49.8C184.479 53.2 180.179 54.9 174.779 54.9C171.779 54.9 169.179 54.45 166.979 53.55C164.779 52.6 162.954 51.275 161.504 49.575C160.054 47.825 158.954 45.75 158.204 43.35C157.504 40.9 157.154 38.2 157.154 35.25ZM164.354 35.25C164.354 37.5 164.554 39.625 164.954 41.625C165.404 43.625 166.079 45.375 166.979 46.875C167.929 48.325 169.154 49.475 170.654 50.325C172.154 51.175 173.954 51.6 176.054 51.6C178.754 51.6 180.954 50.275 182.654 47.625C184.404 44.975 185.279 40.85 185.279 35.25C185.279 32.95 185.054 30.825 184.604 28.875C184.204 26.875 183.554 25.15 182.654 23.7C181.754 22.2 180.604 21.025 179.204 20.175C177.804 19.325 176.129 18.9 174.179 18.9C171.229 18.9 168.854 20.225 167.054 22.875C165.254 25.525 164.354 29.65 164.354 35.25ZM238.809 54H222.684V52.125C224.034 51.425 225.509 50.825 227.109 50.325V32.55C227.109 28.75 226.559 25.75 225.459 23.55C224.359 21.35 222.359 20.25 219.459 20.25C218.209 20.25 217.034 20.475 215.934 20.925C214.884 21.375 213.934 22 213.084 22.8C212.284 23.55 211.584 24.425 210.984 25.425C210.384 26.375 209.909 27.375 209.559 28.425V50.325C211.109 50.625 212.609 51.225 214.059 52.125V54H197.859V52.125C199.109 51.475 200.759 50.875 202.809 50.325V20.85L197.859 20.25V18.3C199.159 17.75 200.659 17.25 202.359 16.8C204.059 16.35 205.834 15.95 207.684 15.6H209.559V24H209.634C210.684 21.7 212.184 19.725 214.134 18.075C216.134 16.425 218.534 15.6 221.334 15.6C223.334 15.6 225.109 15.85 226.659 16.35C228.259 16.8 229.584 17.625 230.634 18.825C231.684 20.025 232.484 21.65 233.034 23.7C233.584 25.7 233.859 28.25 233.859 31.35V50.325C235.859 50.675 237.509 51.275 238.809 52.125V54ZM262.19 45.45C262.19 44.05 261.74 42.875 260.84 41.925C259.99 40.925 258.89 40 257.54 39.15C256.19 38.3 254.74 37.475 253.19 36.675C251.69 35.875 250.265 34.95 248.915 33.9C247.565 32.8 246.44 31.55 245.54 30.15C244.69 28.75 244.265 27.025 244.265 24.975C244.265 23.625 244.565 22.375 245.165 21.225C245.815 20.075 246.665 19.1 247.715 18.3C248.765 17.45 249.99 16.8 251.39 16.35C252.79 15.85 254.29 15.6 255.89 15.6C258.59 15.6 260.79 15.75 262.49 16.05C264.24 16.35 265.915 16.775 267.515 17.325C267.315 18.925 267.065 20.55 266.765 22.2C266.515 23.8 266.14 25.45 265.64 27.15H263.765L260.915 19.5C260.315 19.25 259.64 19.1 258.89 19.05C258.14 18.95 257.365 18.9 256.565 18.9C255.665 18.9 254.865 19.075 254.165 19.425C253.515 19.725 252.94 20.125 252.44 20.625C251.99 21.125 251.64 21.7 251.39 22.35C251.14 23 251.015 23.65 251.015 24.3C251.015 25.65 251.44 26.825 252.29 27.825C253.19 28.775 254.315 29.675 255.665 30.525C257.015 31.325 258.44 32.125 259.94 32.925C261.49 33.725 262.94 34.625 264.29 35.625C265.64 36.625 266.74 37.8 267.59 39.15C268.49 40.45 268.94 42.025 268.94 43.875C268.94 45.575 268.565 47.1 267.815 48.45C267.115 49.8 266.115 50.95 264.815 51.9C263.565 52.85 262.09 53.575 260.39 54.075C258.74 54.625 256.965 54.9 255.065 54.9C252.915 54.9 250.94 54.7 249.14 54.3C247.34 53.95 245.465 53.425 243.515 52.725C243.615 50.925 243.84 49.2 244.19 47.55C244.54 45.85 244.99 44.225 245.54 42.675H247.415L250.715 50.85C251.265 51.25 251.915 51.475 252.665 51.525C253.465 51.575 254.19 51.6 254.84 51.6C257.04 51.6 258.815 51 260.165 49.8C261.515 48.6 262.19 47.15 262.19 45.45Z" fill="white"/>
</g>
<defs>
<filter id="filter0_i" x="0.174988" y="0.599998" width="268.765" height="69.4" filterUnits="userSpaceOnUse" color-interpolation-filters="sRGB">
<feFlood flood-opacity="0" result="BackgroundImageFix"/>
<feBlend mode="normal" in="SourceGraphic" in2="BackgroundImageFix" result="shape"/>
<feColorMatrix in="SourceAlpha" type="matrix" values="0 0 0 0 0 0 0 0 0 0 0 0 0 0 0 0 0 0 127 0" result="hardAlpha"/>
<feOffset dy="1"/>
<feGaussianBlur stdDeviation="7"/>
<feComposite in2="hardAlpha" operator="arithmetic" k2="-1" k3="1"/>
<feColorMatrix type="matrix" values="0 0 0 0 0 0 0 0 0 0 0 0 0 0 0 0 0 0 0.09 0"/>
<feBlend mode="normal" in2="shape" result="effect1_innerShadow"/>
</filter>
</defs>
</svg>
